<?xml version="1.0" encoding="UTF-8" standalone="no"?>
<svg
   height="8"
   width="8"
   version="1.1"
   id="svg8"
   sodipodi:docname="emblem-symbolic-link.svg"
   inkscape:version="1.3.2 (091e20ef0f, 2023-11-25)"
   xmlns:inkscape="http://www.inkscape.org/namespaces/inkscape"
   xmlns:sodipodi="http://sodipodi.sourceforge.net/DTD/sodipodi-0.dtd"
   xmlns="http://www.w3.org/2000/svg"
   xmlns:svg="http://www.w3.org/2000/svg"
   xmlns:rdf="http://www.w3.org/1999/02/22-rdf-syntax-ns#"
   xmlns:cc="http://creativecommons.org/ns#"
   xmlns:dc="http://purl.org/dc/elements/1.1/">
  <metadata
     id="metadata14">
    <rdf:RDF>
      <cc:Work
         rdf:about="">
        <dc:format>image/svg+xml</dc:format>
        <dc:type
           rdf:resource="http://purl.org/dc/dcmitype/StillImage" />
      </cc:Work>
    </rdf:RDF>
  </metadata>
  <defs
     id="defs12" />
  <sodipodi:namedview
     pagecolor="#ffffff"
     bordercolor="#666666"
     borderopacity="1"
     objecttolerance="10"
     gridtolerance="10"
     guidetolerance="10"
     inkscape:pageopacity="0"
     inkscape:pageshadow="2"
     inkscape:window-width="1366"
     inkscape:window-height="696"
     id="namedview10"
     showgrid="false"
     inkscape:zoom="40.216698"
     inkscape:cx="3.6676308"
     inkscape:cy="3.8043899"
     inkscape:window-x="0"
     inkscape:window-y="0"
     inkscape:window-maximized="1"
     inkscape:current-layer="svg8"
     inkscape:showpageshadow="2"
     inkscape:pagecheckerboard="0"
     inkscape:deskcolor="#d1d1d1" />
  <g
     id="g2"
     transform="matrix(0.14924605,0,0,0.149195,-0.65453285,8.3672484)">
    <path
       id="path6"
       style="fill:#666666;fill-opacity:1;stroke:none;stroke-width:1.0396"
       d="m 44.33495,-56.080227 c -3.336037,-0.06614 -6.757908,1.231143 -9.382828,3.86521 l -4.107401,4.123049 c -4.094438,4.108686 -4.9248,10.14153 -2.41406,14.75588 l 5.771452,-5.84572 c 0.0635,-0.962683 0.496894,-1.953184 1.287118,-2.746091 l 5.644535,-5.664076 c 1.570583,-1.576063 3.930142,-1.752605 5.292964,-0.394507 l 3.457021,3.445304 c 1.362859,1.358098 1.195464,3.720794 -0.37493,5.296857 l -5.642608,5.664075 c -0.94182,0.945109 -2.16839,1.381947 -3.292951,1.291011 l -5.564447,5.638678 c 4.65789,2.688945 10.857449,1.885644 15.037115,-2.308611 l 4.107402,-4.121084 c 4.941052,-4.958287 5.132447,-12.723742 0.429694,-17.410167 l -2.222664,-2.214841 c -2.204448,-2.196775 -5.081802,-3.316649 -8.025374,-3.374967 z" />
    <path
       id="rect2"
       style="fill:#666666;fill-opacity:1;stroke-width:1.0396"
       d="m 27.131826,-32.019716 c -4.63011,-2.530961 -10.692208,-1.689336 -14.802747,2.435565 l -4.1074008,4.121083 c -4.941052,4.958249 -5.134489,12.723705 -0.43166,17.4101679 l 2.2245918,2.214841 c 4.702791,4.686463 12.467188,4.468006 17.40824,-0.490243 l 4.107401,-4.1210829 c 4.163792,-4.178306 4.9536,-10.349632 2.28514,-14.992177 l -5.634746,5.710942 c 0.03402,1.074066 -0.403313,2.2224 -1.294904,3.117165 l -5.642608,5.662111 c -1.57062,1.5760629 -3.933997,1.7526419 -5.296857,0.394544 l -3.455093,-3.443376 c -1.362822,-1.358135 -1.195389,-3.722759 0.374929,-5.298822 l 5.642571,-5.66211 c 0.845934,-0.848882 1.921511,-1.287308 2.947275,-1.302728 0.02268,-0.02268 0.04006,-0.04762 0.06236,-0.0703 z" />
    <path
       id="rect5"
       style="opacity:0.8;fill:#808080;fill-opacity:1;stroke-width:0.924193"
       d="m 1.5055065,-58.820976 c 2.5979998,0 4.6895304,2.09153 4.6895304,4.68953 v 20.302368 c 0,2.598 -2.0915306,4.689531 -4.6895304,4.689531 -2.5979998,0 -4.6895304,-2.091531 -4.6895304,-4.689531 v -20.302368 c 0,-2.598 2.0915306,-4.68953 4.6895304,-4.68953 z"
       transform="matrix(0.70494598,0.70926099,-0.70247235,0.71171104,0,0)" />
  </g>
</svg>
